<svg width="24" height="24" viewBox="0 0 24 24" fill="none" xmlns="http://www.w3.org/2000/svg">
<path fill-rule="evenodd" clip-rule="evenodd" d="M12 1C5.925 1 1 5.925 1 12C1 18.075 5.925 23 12 23C18.075 23 23 18.075 23 12C23 5.925 18.075 1 12 1ZM12 21C7.029 21 3 16.971 3 12C3 7.029 7.029 3 12 3C16.97 3 21 7.029 21 12C21 16.971 16.97 21 12 21ZM17.9411 13.281C17.3401 14.862 15.6581 16 13.6771 16C11.6961 16 10.0141 14.862 9.4131 13.281C9.1761 12.659 9.6881 12 10.3671 12H16.9871C17.6661 12 18.1781 12.659 17.9411 13.281ZM16.5 7C15.671 7 15 7.672 15 8.5C15 9.329 15.671 10 16.5 10C17.329 10 18 9.329 18 8.5C18 7.672 17.329 7 16.5 7ZM12 8.5C12 9.329 11.329 10 10.5 10C9.672 10 9 9.329 9 8.5C9 7.672 9.672 7 10.5 7C11.329 7 12 7.672 12 8.5Z" fill="#A1754C"/>
</svg>
