<svg width="89" height="89" viewBox="0 0 89 89" fill="none" xmlns="http://www.w3.org/2000/svg">
<path d="M43.8047 17.3828C28.786 17.939 18.5417 29.6667 15.2969 35.4609L11.752 7.6925C11.4772 5.53972 13.664 3.91567 15.6454 4.801L43.8047 17.3828Z" fill="url(#paint0_linear_4_104)"/>
<path fill-rule="evenodd" clip-rule="evenodd" d="M14.8351 8.26768C15.2611 7.62865 16.1245 7.45597 16.7636 7.88199L35.537 20.3976C36.176 20.8236 36.3487 21.687 35.9227 22.3261C35.4967 22.9651 34.6333 23.1378 33.9942 22.7118L15.2208 10.1961C14.5818 9.77011 14.4091 8.90671 14.8351 8.26768Z" fill="#69C0FF"/>
<circle cx="12.5156" cy="45.8906" r="5.5625" fill="url(#paint1_radial_4_104)"/>
<circle r="5.5625" transform="matrix(-1 0 0 1 76.4844 45.8906)" fill="url(#paint2_radial_4_104)"/>
<circle cx="44.5" cy="48.6719" r="33.375" fill="url(#paint3_radial_4_104)"/>
<circle cx="44.5" cy="48.6719" r="33.375" fill="url(#paint4_radial_4_104)"/>
<g filter="url(#filter0_f_4_104)">
<path d="M42.4143 76.4845C59.6947 76.4845 73.7033 62.4759 73.7033 45.1954C73.7033 41.9365 73.2051 38.794 72.2807 35.8398C74.0862 39.7423 75.0937 44.0894 75.0937 48.6718C75.0937 65.5683 61.3964 79.2656 44.4999 79.2656C34.5338 79.2656 25.6806 74.5002 20.0948 67.1237C25.7717 72.9012 33.6745 76.4845 42.4143 76.4845Z" fill="#C1092A" fill-opacity="0.8"/>
</g>
<path fill-rule="evenodd" clip-rule="evenodd" d="M76.8419 42.3855C79.6865 44.3567 80.8468 48.1676 79.14 52.8614C77.8585 56.3858 75.7768 58.5475 73.3874 59.7751C71.0652 60.9681 68.629 61.1877 66.75 61.1876C66.75 61.1876 66.75 61.1876 66.75 61.1876H47.9766C46.8245 61.1876 45.8906 60.2537 45.8906 59.1017C45.8906 57.9497 46.8245 57.0157 47.9766 57.0157H66.75C68.3475 57.0158 70.0137 56.8181 71.481 56.0643C72.8811 55.345 74.2759 54.0301 75.2193 51.4357C76.4473 48.0588 75.3804 46.4484 74.4657 45.8145C73.3174 45.0188 71.8096 45.1717 71.0063 45.9751C70.2807 46.7007 70.1771 47.6921 70.5041 48.4863C70.8307 49.2797 71.3758 49.5134 71.9034 49.4079C73.0331 49.182 74.132 49.9146 74.3579 51.0442C74.5839 52.1739 73.8512 53.2728 72.7216 53.4988C69.7726 54.0886 67.5365 52.2364 66.6464 50.0747C65.7566 47.9137 66.0006 45.0809 68.0562 43.0252C70.447 40.6343 74.2307 40.576 76.8419 42.3855Z" fill="#D424E3"/>
<path fill-rule="evenodd" clip-rule="evenodd" d="M70.0229 42.6177C70.2944 42.8892 70.2945 43.3295 70.0229 43.601C68.854 44.77 68.7036 46.3752 69.2182 47.625C69.7327 48.8745 70.8414 49.6477 72.1761 49.3808C72.5527 49.3055 72.919 49.5497 72.9943 49.9262C73.0696 50.3028 72.8254 50.6691 72.4489 50.7444C70.307 51.1728 68.6346 49.8601 67.9323 48.1545C67.2301 46.4491 67.4273 44.2301 69.0396 42.6177C69.3111 42.3462 69.7514 42.3462 70.0229 42.6177Z" fill="#F059FD"/>
<path fill-rule="evenodd" clip-rule="evenodd" d="M72.7398 56.1447C72.9328 56.4766 72.8201 56.9022 72.4881 57.0952C70.4529 58.2785 68.238 58.3915 66.7569 58.4062C66.7546 58.4062 66.7523 58.4062 66.75 58.4062H47.9766C47.5926 58.4062 47.2812 58.0949 47.2812 57.7109C47.2812 57.3269 47.5926 57.0156 47.9766 57.0156H66.7465C68.1911 57.0012 70.0884 56.8818 71.7892 55.893C72.1212 55.7 72.5468 55.8127 72.7398 56.1447Z" fill="#F059FD"/>
<g filter="url(#filter1_ddii_4_104)">
<path fill-rule="evenodd" clip-rule="evenodd" d="M47.3759 56.3561C48.4759 55.3065 49.1724 53.9874 49.4523 53.1643C49.8233 52.0737 51.0082 51.4903 52.0989 51.8613C53.1895 52.2322 53.773 53.4171 53.402 54.5078C52.9386 55.8702 51.9112 57.7949 50.2558 59.3744C48.5639 60.9888 46.1319 62.3092 42.9925 62.1329C41.8423 62.0682 40.9623 61.0834 41.0269 59.9332C41.0915 58.783 42.0763 57.9029 43.2265 57.9676C44.9572 58.0648 46.3124 57.3708 47.3759 56.3561Z" fill="#894819"/>
</g>
<g filter="url(#filter2_ddii_4_104)">
<path fill-rule="evenodd" clip-rule="evenodd" d="M30.7918 28.5865C29.0133 28.8732 27.3695 29.8913 26.4391 30.7423C25.5891 31.5198 24.2696 31.4611 23.4921 30.611C22.7145 29.7609 22.7733 28.4415 23.6234 27.664C24.9875 26.4162 27.3488 24.9157 30.128 24.4678C33.0445 23.9977 36.3332 24.7175 39.1016 27.8124C39.8697 28.6711 39.7962 29.9898 38.9376 30.7578C38.0789 31.5259 36.7602 31.4524 35.9922 30.5938C34.255 28.6517 32.4331 28.322 30.7918 28.5865Z" fill="#894819"/>
</g>
<g filter="url(#filter3_ddii_4_104)">
<path fill-rule="evenodd" clip-rule="evenodd" d="M57.2137 28.5865C55.4352 28.8732 53.7914 29.8913 52.861 30.7423C52.0109 31.5198 50.6915 31.461 49.914 30.611C49.1364 29.7609 49.1952 28.4415 50.0453 27.664C51.4094 26.4162 53.7706 24.9157 56.5499 24.4678C59.4664 23.9977 62.7551 24.7175 65.5235 27.8124C66.2915 28.6711 66.2181 29.9898 65.3594 30.7578C64.5008 31.5259 63.1821 31.4524 62.414 30.5938C60.6768 28.6517 58.855 28.322 57.2137 28.5865Z" fill="#894819"/>
</g>
<path d="M45.8906 6.95312C45.8906 8.48917 44.6454 9.73438 43.1094 9.73438C41.5733 9.73438 40.3281 8.48917 40.3281 6.95312C40.3281 5.41708 41.5733 4.17188 43.1094 4.17188C44.6454 4.17188 45.8906 5.41708 45.8906 6.95312Z" fill="#27BBFA"/>
<path d="M69.5312 15.2969C69.5312 16.8329 68.286 18.0781 66.75 18.0781C65.214 18.0781 63.9688 16.8329 63.9688 15.2969C63.9688 13.7608 65.214 12.5156 66.75 12.5156C68.286 12.5156 69.5312 13.7608 69.5312 15.2969Z" fill="#9027FA"/>
<path d="M37.5469 41.7188C37.5469 43.2548 36.3017 44.5 34.7656 44.5C33.2296 44.5 31.9844 43.2548 31.9844 41.7188C31.9844 40.1827 33.2296 38.9375 34.7656 38.9375C36.3017 38.9375 37.5469 40.1827 37.5469 41.7188Z" fill="#27BBFA"/>
<path d="M9.73438 30.5938C9.73438 32.1298 8.48917 33.375 6.95312 33.375C5.41708 33.375 4.17188 32.1298 4.17188 30.5938C4.17188 29.0577 5.41708 27.8125 6.95312 27.8125C8.48917 27.8125 9.73438 29.0577 9.73438 30.5938Z" fill="#FA27F1"/>
<path d="M25.0312 59.7969C25.0312 61.3329 23.786 62.5781 22.25 62.5781C20.714 62.5781 19.4688 61.3329 19.4688 59.7969C19.4688 58.2608 20.714 57.0156 22.25 57.0156C23.786 57.0156 25.0312 58.2608 25.0312 59.7969Z" fill="#9027FA"/>
<path d="M63.9688 38.9375C63.9688 40.4735 62.7235 41.7188 61.1875 41.7188C59.6515 41.7188 58.4062 40.4735 58.4062 38.9375C58.4062 37.4015 59.6515 36.1562 61.1875 36.1562C62.7235 36.1562 63.9688 37.4015 63.9688 38.9375Z" fill="#FA27F1"/>
<path d="M76.4844 31.9844C76.4844 33.5204 75.2392 34.7656 73.7031 34.7656C72.1671 34.7656 70.9219 33.5204 70.9219 31.9844C70.9219 30.4483 72.1671 29.2031 73.7031 29.2031C75.2392 29.2031 76.4844 30.4483 76.4844 31.9844Z" fill="#27BBFA"/>
<defs>
<filter id="filter0_f_4_104" x="11.6573" y="27.4023" width="71.8739" height="60.3007" filterUnits="userSpaceOnUse" color-interpolation-filters="sRGB">
<feFlood flood-opacity="0" result="BackgroundImageFix"/>
<feBlend mode="normal" in="SourceGraphic" in2="BackgroundImageFix" result="shape"/>
<feGaussianBlur stdDeviation="4.21875" result="effect1_foregroundBlur_4_104"/>
</filter>
<filter id="filter1_ddii_4_104" x="38.211" y="50.3433" width="18.1151" height="16.0241" filterUnits="userSpaceOnUse" color-interpolation-filters="sRGB">
<feFlood flood-opacity="0" result="BackgroundImageFix"/>
<feColorMatrix in="SourceAlpha" type="matrix" values="0 0 0 0 0 0 0 0 0 0 0 0 0 0 0 0 0 0 127 0" result="hardAlpha"/>
<feOffset dy="1.40625"/>
<feGaussianBlur stdDeviation="1.40625"/>
<feColorMatrix type="matrix" values="0 0 0 0 0.282353 0 0 0 0 0.054902 0 0 0 0 0.301961 0 0 0 0.2 0"/>
<feBlend mode="normal" in2="BackgroundImageFix" result="effect1_dropShadow_4_104"/>
<feColorMatrix in="SourceAlpha" type="matrix" values="0 0 0 0 0 0 0 0 0 0 0 0 0 0 0 0 0 0 127 0" result="hardAlpha"/>
<feOffset dy="0.351562"/>
<feGaussianBlur stdDeviation="0.351562"/>
<feComposite in2="hardAlpha" operator="out"/>
<feColorMatrix type="matrix" values="0 0 0 0 0.282353 0 0 0 0 0.054902 0 0 0 0 0.301961 0 0 0 0.2 0"/>
<feBlend mode="normal" in2="effect1_dropShadow_4_104" result="effect2_dropShadow_4_104"/>
<feBlend mode="normal" in="SourceGraphic" in2="effect2_dropShadow_4_104" result="shape"/>
<feColorMatrix in="SourceAlpha" type="matrix" values="0 0 0 0 0 0 0 0 0 0 0 0 0 0 0 0 0 0 127 0" result="hardAlpha"/>
<feOffset dx="0.527344" dy="0.527344"/>
<feGaussianBlur stdDeviation="1.40625"/>
<feComposite in2="hardAlpha" operator="arithmetic" k2="-1" k3="1"/>
<feColorMatrix type="matrix" values="0 0 0 0 0.76276 0 0 0 0 0.388636 0 0 0 0 0.122215 0 0 0 1 0"/>
<feBlend mode="normal" in2="shape" result="effect3_innerShadow_4_104"/>
<feColorMatrix in="SourceAlpha" type="matrix" values="0 0 0 0 0 0 0 0 0 0 0 0 0 0 0 0 0 0 127 0" result="hardAlpha"/>
<feOffset dx="-0.527344" dy="-0.527344"/>
<feGaussianBlur stdDeviation="1.40625"/>
<feComposite in2="hardAlpha" operator="arithmetic" k2="-1" k3="1"/>
<feColorMatrix type="matrix" values="0 0 0 0 0.354427 0 0 0 0 0.180009 0 0 0 0 0.0538352 0 0 0 1 0"/>
<feBlend mode="normal" in2="effect3_innerShadow_4_104" result="effect4_innerShadow_4_104"/>
</filter>
<filter id="filter2_ddii_4_104" x="20.1328" y="22.9303" width="22.3125" height="12.5776" filterUnits="userSpaceOnUse" color-interpolation-filters="sRGB">
<feFlood flood-opacity="0" result="BackgroundImageFix"/>
<feColorMatrix in="SourceAlpha" type="matrix" values="0 0 0 0 0 0 0 0 0 0 0 0 0 0 0 0 0 0 127 0" result="hardAlpha"/>
<feOffset dy="1.40625"/>
<feGaussianBlur stdDeviation="1.40625"/>
<feColorMatrix type="matrix" values="0 0 0 0 0.282353 0 0 0 0 0.054902 0 0 0 0 0.301961 0 0 0 0.2 0"/>
<feBlend mode="normal" in2="BackgroundImageFix" result="effect1_dropShadow_4_104"/>
<feColorMatrix in="SourceAlpha" type="matrix" values="0 0 0 0 0 0 0 0 0 0 0 0 0 0 0 0 0 0 127 0" result="hardAlpha"/>
<feOffset dy="0.351562"/>
<feGaussianBlur stdDeviation="0.351562"/>
<feComposite in2="hardAlpha" operator="out"/>
<feColorMatrix type="matrix" values="0 0 0 0 0.282353 0 0 0 0 0.054902 0 0 0 0 0.301961 0 0 0 0.2 0"/>
<feBlend mode="normal" in2="effect1_dropShadow_4_104" result="effect2_dropShadow_4_104"/>
<feBlend mode="normal" in="SourceGraphic" in2="effect2_dropShadow_4_104" result="shape"/>
<feColorMatrix in="SourceAlpha" type="matrix" values="0 0 0 0 0 0 0 0 0 0 0 0 0 0 0 0 0 0 127 0" result="hardAlpha"/>
<feOffset dx="0.527344" dy="0.527344"/>
<feGaussianBlur stdDeviation="1.40625"/>
<feComposite in2="hardAlpha" operator="arithmetic" k2="-1" k3="1"/>
<feColorMatrix type="matrix" values="0 0 0 0 0.76276 0 0 0 0 0.388636 0 0 0 0 0.122215 0 0 0 1 0"/>
<feBlend mode="normal" in2="shape" result="effect3_innerShadow_4_104"/>
<feColorMatrix in="SourceAlpha" type="matrix" values="0 0 0 0 0 0 0 0 0 0 0 0 0 0 0 0 0 0 127 0" result="hardAlpha"/>
<feOffset dx="-0.527344" dy="-0.527344"/>
<feGaussianBlur stdDeviation="1.40625"/>
<feComposite in2="hardAlpha" operator="arithmetic" k2="-1" k3="1"/>
<feColorMatrix type="matrix" values="0 0 0 0 0.354427 0 0 0 0 0.180009 0 0 0 0 0.0538352 0 0 0 1 0"/>
<feBlend mode="normal" in2="effect3_innerShadow_4_104" result="effect4_innerShadow_4_104"/>
</filter>
<filter id="filter3_ddii_4_104" x="46.5547" y="22.9303" width="22.3125" height="12.5776" filterUnits="userSpaceOnUse" color-interpolation-filters="sRGB">
<feFlood flood-opacity="0" result="BackgroundImageFix"/>
<feColorMatrix in="SourceAlpha" type="matrix" values="0 0 0 0 0 0 0 0 0 0 0 0 0 0 0 0 0 0 127 0" result="hardAlpha"/>
<feOffset dy="1.40625"/>
<feGaussianBlur stdDeviation="1.40625"/>
<feColorMatrix type="matrix" values="0 0 0 0 0.282353 0 0 0 0 0.054902 0 0 0 0 0.301961 0 0 0 0.2 0"/>
<feBlend mode="normal" in2="BackgroundImageFix" result="effect1_dropShadow_4_104"/>
<feColorMatrix in="SourceAlpha" type="matrix" values="0 0 0 0 0 0 0 0 0 0 0 0 0 0 0 0 0 0 127 0" result="hardAlpha"/>
<feOffset dy="0.351562"/>
<feGaussianBlur stdDeviation="0.351562"/>
<feComposite in2="hardAlpha" operator="out"/>
<feColorMatrix type="matrix" values="0 0 0 0 0.282353 0 0 0 0 0.054902 0 0 0 0 0.301961 0 0 0 0.2 0"/>
<feBlend mode="normal" in2="effect1_dropShadow_4_104" result="effect2_dropShadow_4_104"/>
<feBlend mode="normal" in="SourceGraphic" in2="effect2_dropShadow_4_104" result="shape"/>
<feColorMatrix in="SourceAlpha" type="matrix" values="0 0 0 0 0 0 0 0 0 0 0 0 0 0 0 0 0 0 127 0" result="hardAlpha"/>
<feOffset dx="0.527344" dy="0.527344"/>
<feGaussianBlur stdDeviation="1.40625"/>
<feComposite in2="hardAlpha" operator="arithmetic" k2="-1" k3="1"/>
<feColorMatrix type="matrix" values="0 0 0 0 0.76276 0 0 0 0 0.388636 0 0 0 0 0.122215 0 0 0 1 0"/>
<feBlend mode="normal" in2="shape" result="effect3_innerShadow_4_104"/>
<feColorMatrix in="SourceAlpha" type="matrix" values="0 0 0 0 0 0 0 0 0 0 0 0 0 0 0 0 0 0 127 0" result="hardAlpha"/>
<feOffset dx="-0.527344" dy="-0.527344"/>
<feGaussianBlur stdDeviation="1.40625"/>
<feComposite in2="hardAlpha" operator="arithmetic" k2="-1" k3="1"/>
<feColorMatrix type="matrix" values="0 0 0 0 0.354427 0 0 0 0 0.180009 0 0 0 0 0.0538352 0 0 0 1 0"/>
<feBlend mode="normal" in2="effect3_innerShadow_4_104" result="effect4_innerShadow_4_104"/>
</filter>
<linearGradient id="paint0_linear_4_104" x1="27.1172" y1="2.08593" x2="11.8203" y2="34.7656" gradientUnits="userSpaceOnUse">
<stop stop-color="#188DE1"/>
<stop offset="0.258035" stop-color="#4DACF1"/>
<stop offset="0.482007" stop-color="#2192E3"/>
<stop offset="1" stop-color="#1073BA"/>
</linearGradient>
<radialGradient id="paint1_radial_4_104" cx="0" cy="0" r="1" gradientUnits="userSpaceOnUse" gradientTransform="translate(8.34375 43.8047) rotate(61.3895) scale(8.71224)">
<stop stop-color="#FFCE21"/>
<stop offset="1" stop-color="#E9A326"/>
</radialGradient>
<radialGradient id="paint2_radial_4_104" cx="0" cy="0" r="1" gradientUnits="userSpaceOnUse" gradientTransform="translate(1.39063 3.47656) rotate(61.3895) scale(8.71224)">
<stop stop-color="#FFCE21"/>
<stop offset="1" stop-color="#E9A326"/>
</radialGradient>
<radialGradient id="paint3_radial_4_104" cx="0" cy="0" r="1" gradientUnits="userSpaceOnUse" gradientTransform="translate(32.6797 23.6406) rotate(78.559) scale(59.5904)">
<stop stop-color="#FFF7D9"/>
<stop offset="0.122763" stop-color="#FFE690"/>
<stop offset="0.518601" stop-color="#FFCE22"/>
<stop offset="1" stop-color="#FFB422"/>
</radialGradient>
<radialGradient id="paint4_radial_4_104" cx="0" cy="0" r="1" gradientUnits="userSpaceOnUse" gradientTransform="translate(32.6797 23.6406) rotate(78.559) scale(59.5904)">
<stop offset="0.857147" stop-color="#EDFF22" stop-opacity="0"/>
<stop offset="1" stop-color="#FF24F6" stop-opacity="0.3"/>
</radialGradient>
</defs>
</svg>
